<svg width="30" height="30" viewBox="0 0 30 30" fill="none" xmlns="http://www.w3.org/2000/svg">
<g clip-path="url(#clip0_3_971)">
<path d="M25.334 27.3722L23.8127 9.07532C23.7712 8.57565 23.3834 8.19292 22.919 8.19292H19.7818V6.66483C19.7818 3.81694 17.6366 1.5 14.9998 1.5C12.3631 1.5 10.2182 3.81694 10.2182 6.66483V8.19292H7.07886C6.61441 8.19292 6.22664 8.57565 6.18513 9.07532L4.65788 27.4442C4.63539 27.7153 4.71938 27.9839 4.88939 28.1847C5.05941 28.3855 5.29977 28.4999 5.55162 28.4999H24.4464C24.4471 28.4999 24.448 28.4999 24.4487 28.4999C24.9444 28.4999 25.3461 28.066 25.3461 27.5308C25.346 27.4769 25.3419 27.4238 25.334 27.3722ZM12.0128 6.66483C12.0128 4.88568 13.3528 3.43822 14.9999 3.43822C16.6472 3.43822 17.9873 4.88568 17.9873 6.66483V8.19292H12.0128V6.66483ZM6.53317 26.5618L7.89925 10.1311H10.2182V11.8642C10.2182 12.3994 10.6198 12.8333 11.1155 12.8333C11.6112 12.8333 12.0128 12.3994 12.0128 11.8642V10.1311H17.9873V11.8642C17.9873 12.3994 18.389 12.8333 18.8846 12.8333C19.3803 12.8333 19.782 12.3994 19.782 11.8642V10.1311H22.0987L23.4648 26.5618H6.53317Z" fill="#222222"/>
</g>
<defs>
<clipPath id="clip0_3_971">
<rect width="25" height="27" fill="white" transform="translate(2.5 1.5)"/>
</clipPath>
</defs>
</svg>
